<?xml version="1.0" encoding="utf-8"?>
<!-- Generator: Adobe Illustrator 22.1.0, SVG Export Plug-In . SVG Version: 6.00 Build 0)  -->
<svg version="1.1" id="Layer_1" xmlns="http://www.w3.org/2000/svg" xmlns:xlink="http://www.w3.org/1999/xlink" x="0px" y="0px"
	 viewBox="0 0 120 120" style="enable-background:new 0 0 120 120;" xml:space="preserve">
<style type="text/css">
	.st0{fill:#0E9907;}
	.st1{fill:#FF8B00;}
	.st2{fill:#FFAB00;}
	.st3{fill:#FFFFFF;}
	.st4{fill:#42526E;}
</style>
<path class="st0" d="M60,120C27,120,0,93,0,60S27,0,60,0s60,27,60,60S93,120,60,120z"/>
<path class="st1" d="M88,97H32c-2,0-3-1.5-3-3v-4.5h62.5v3.4c0,1-0.3,2-0.9,2.8S89.2,97,88,97z M93,71.5H27c-4.5,0-8.5-3.5-8.5-8.5
	c0-4.5,3.5-8.5,8.5-8.5h66c4.5,0,8.5,3.5,8.5,8.5S97.5,71.5,93,71.5z"/>
<path class="st2" d="M91,89.5H29c-2,0-3-1.5-3-3V57c-0.5-19,15-34.5,34-34.5S94.5,38,94.5,57v29.5C94.5,88,93,89.5,91,89.5z"/>
<circle class="st3" cx="44.5" cy="52" r="9.5"/>
<circle class="st4" cx="44.5" cy="52" r="3"/>
<circle class="st3" cx="75.5" cy="52" r="9.5"/>
<circle class="st4" cx="75.5" cy="52" r="3"/>
<path class="st1" d="M62.5,69.5H57c-2.5,0-4-2.5-2.5-5l2.5-4c1-2,4-2,5.5,0l2.5,4C66.5,66.5,65.5,69.5,62.5,69.5z"/>
<path class="st4" d="M60,83.5c4.5,0,8.5-3.5,9-7.5c0.1-1.3-0.9-2-1.9-2H53.5c-1,0-2.6,0.3-2.5,2C51.5,80.5,55.5,83.5,60,83.5z"/>
<path class="st1" d="M60,41c3.5,0,6.5-2.5,6.5-6.5V23c-2-0.5-4-0.5-6.5-0.5c-2,0-4.5,0-6.5,0.5v12C53.5,38,56.5,41,60,41z"/>
</svg>
